<svg
   xmlns:dc="http://purl.org/dc/elements/1.1/"
   xmlns:cc="http://creativecommons.org/ns#"
   xmlns:rdf="http://www.w3.org/1999/02/22-rdf-syntax-ns#"
   xmlns:svg="http://www.w3.org/2000/svg"
   xmlns="http://www.w3.org/2000/svg"
   id="svg69"
   version="1.1"
   viewBox="0 0 380 280">
  <metadata
     id="metadata75">
    <rdf:RDF>
      <cc:Work
         rdf:about="">
        <dc:format>image/svg+xml</dc:format>
        <dc:type
           rdf:resource="http://purl.org/dc/dcmitype/StillImage" />
      </cc:Work>
    </rdf:RDF>
  </metadata>
  <defs
     id="defs73" />
  <svg
     height="100%"
     width="100%"
     id="svg9"
     version="1.1"
     viewBox="0 0 380 280">
    <linearGradient
       y2="0"
       x2="1"
       y1="0"
       x1="0"
       id="bg_color_gradient">
      <stop
         id="stop2"
         style="stop-color:#071426;stop-opacity:1"
         offset="0%" />
      <stop
         id="stop4"
         style="stop-color:#071426;stop-opacity:1"
         offset="100%" />
    </linearGradient>
    <path
       id="rect7"
       d="M 0,0 H 380 V 280 H 0 Z"
       style="fill:url(#bg_color_gradient);fill-opacity:1" />
  </svg>
  <g
     id="text11"
     style="font-size:40px;font-family:'HelloFont WenYiHei';fill:#ffffff;fill-opacity:1"
     aria-label="c">
    <path
       id="path78"
       style="font-size:40px;font-family:'HelloFont WenYiHei';fill:#ffffff;fill-opacity:1"
       d="m 98.375,151.255 q -1.84,0 -3.12,-1.64 -1.28,-1.64 -1.28,-3.92 v -11.72 q 0,-2.36 1.28,-3.92 1.32,-1.64 3.12,-1.64 h 16.52 v 4.8 h -14.72 v 13.24 h 14.6 v 4.8 z" />
  </g>
  <g
     id="text13"
     style="font-size:40px;font-family:'HelloFont WenYiHei';fill:#ffffff;fill-opacity:1"
     aria-label="y">
    <path
       id="path81"
       style="font-size:40px;font-family:'HelloFont WenYiHei';fill:#ffffff;fill-opacity:1"
       d="m 117.66,128.415 h 6.64 l 6.16,14.6 5.68,-14.6 h 6.64 l -12.72,31.24 h -6.24 l 3.64,-9.04 z" />
  </g>
  <g
     id="text15"
     style="font-size:40px;font-family:'HelloFont WenYiHei';fill:#ffffff;fill-opacity:1"
     aria-label="b">
    <path
       id="path84"
       style="font-size:40px;font-family:'HelloFont WenYiHei';fill:#ffffff;fill-opacity:1"
       d="m 167.69,146.375 q 0,2.04 -1.28,3.44 -1.32,1.44 -3.12,1.44 h -18 l -0.04,-31 h 6.2 v 9.4 h 11.84 q 1.8,0 3.12,1.44 1.28,1.4 1.28,3.44 z m -6.2,-11.92 h -10 v 12 h 10 z" />
  </g>
  <g
     id="text17"
     style="font-size:40px;font-family:'HelloFont WenYiHei';fill:#ffffff;fill-opacity:1"
     aria-label="e">
    <path
       id="path87"
       style="font-size:40px;font-family:'HelloFont WenYiHei';fill:#ffffff;fill-opacity:1"
       d="m 187.775,128.415 q 1.92,0 3.16,1.4 1.24,1.4 1.24,3.68 v 3.72 q 0,2.28 -1.24,3.68 -1.24,1.4 -3.16,1.4 h -11.12 v 4.16 h 15.56 v 4.8 h -17.36 q -1.8,0 -3.12,-1.64 -1.28,-1.64 -1.28,-3.92 v -11.72 q 0,-2.28 1.28,-3.92 1.32,-1.64 3.12,-1.64 z m -11.12,4.8 v 4.28 h 9.32 v -4.28 z" />
  </g>
  <g
     id="text19"
     style="font-size:40px;font-family:'HelloFont WenYiHei';fill:#ffffff;fill-opacity:1"
     aria-label="r">
    <path
       id="path90"
       style="font-size:40px;font-family:'HelloFont WenYiHei';fill:#ffffff;fill-opacity:1"
       d="m 194.985,151.255 v -22.84 h 14.12 v 4.8 h -8 v 18.04 z" />
  </g>
  <g
     id="text21"
     style="font-size:40px;font-family:'HelloFont WenYiHei';fill:#ffffff;fill-opacity:1"
     aria-label="d">
    <path
       id="path93"
       style="font-size:40px;font-family:'HelloFont WenYiHei';fill:#ffffff;fill-opacity:1"
       d="m 211.25,134.535 q 0,-2.04 1.28,-3.44 1.32,-1.44 3.12,-1.44 h 11.84 v -9.4 h 6.2 l -0.04,31 h -18 q -0.92,0 -1.72,-0.36 -0.76,-0.32 -1.4,-1.08 -1.28,-1.48 -1.28,-3.44 z m 16.2,11.92 v -12 h -10 v 12 z" />
  </g>
  <g
     id="text23"
     style="font-size:40px;font-family:'HelloFont WenYiHei';fill:#ffffff;fill-opacity:1"
     aria-label="a">
    <path
       id="path96"
       style="font-size:40px;font-family:'HelloFont WenYiHei';fill:#ffffff;fill-opacity:1"
       d="m 236.8,133.735 q 0,-1.12 0.36,-2 0.36,-0.92 1,-1.72 1.32,-1.6 3.16,-1.6 h 12.36 q 1.8,0 3.12,1.6 1.28,1.52 1.28,3.72 v 12.72 h 2.24 v 4.8 H 241.2 q -1.88,0 -3.12,-1.56 -0.64,-0.8 -0.96,-1.68 -0.32,-0.92 -0.32,-2.08 z m 15.08,12.72 v -13.24 H 243 v 13.24 z" />
  </g>
  <g
     id="text25"
     style="font-size:40px;font-family:'HelloFont WenYiHei';fill:#ffffff;fill-opacity:1"
     aria-label="o">
    <path
       id="path99"
       style="font-size:40px;font-family:'HelloFont WenYiHei';fill:#ffffff;fill-opacity:1"
       d="m 286.095,145.695 q 0,2.36 -1.28,3.92 -1.32,1.64 -3.12,1.64 h -14.04 q -1.76,0 -3.16,-1.64 -1.36,-1.6 -1.36,-3.92 v -11.72 q 0,-2.24 1.36,-3.92 1.32,-1.64 3.16,-1.64 h 14.04 q 1.84,0 3.12,1.64 1.28,1.64 1.28,3.92 z m -16.76,0.68 h 10.56 v -13.08 h -10.56 z" />
  </g>
  <svg
     id="svg41"
     version="1.1"
     height="21.360001"
     width="21.360001"
     y="107.64"
     x="291.375">
    <svg
       height="100%"
       width="100%"
       id="svg39"
       version="1.1"
       viewBox="0 0 21.36 21.36">
      <g
         style="fill:#adc7ed"
         id="g37">
        <path
           id="path27"
           d="M 0,0 H 7.12 V 7.12 H 0 Z" />
        <path
           id="path29"
           d="m 0,14.24 h 7.12 v 7.12 H 0 Z" />
        <path
           id="path31"
           d="m 7.12,7.12 h 7.12 v 7.12 H 7.12 Z" />
        <path
           id="path33"
           d="m 14.24,0 h 7.12 v 7.12 h -7.12 z" />
        <path
           id="path35"
           d="m 14.24,14.24 h 7.12 v 7.12 h -7.12 z" />
      </g>
    </svg>
  </svg>
  <g
     id="text43"
     style="font-size:14px;font-family:'Alibaba PuHuiTi Medium';fill:#ffffff;fill-opacity:1"
     aria-label="c">
    <path
       id="path102"
       style="font-size:14px;font-family:'Alibaba PuHuiTi Medium';fill:#ffffff;fill-opacity:1"
       d="m 148.69775,177.73375 q -0.868,0 -1.554,-0.182 -0.672,-0.182 -1.148,-0.63 -0.462,-0.448 -0.714,-1.204 -0.238,-0.756 -0.238,-1.904 0,-1.148 0.238,-1.904 0.252,-0.756 0.714,-1.204 0.476,-0.448 1.148,-0.63 0.686,-0.182 1.554,-0.182 0.588,0 1.092,0.07 0.518,0.07 0.868,0.182 v 1.498 q -0.406,-0.154 -0.84,-0.224 -0.434,-0.07 -0.938,-0.07 -0.546,0 -0.938,0.126 -0.378,0.112 -0.63,0.392 -0.238,0.28 -0.35,0.756 -0.112,0.476 -0.112,1.204 0,0.714 0.112,1.19 0.112,0.462 0.35,0.742 0.252,0.28 0.644,0.392 0.392,0.112 0.952,0.112 0.476,0 0.938,-0.07 0.462,-0.07 0.868,-0.224 v 1.484 q -0.168,0.056 -0.406,0.112 -0.224,0.042 -0.504,0.084 -0.266,0.042 -0.56,0.056 -0.28,0.028 -0.546,0.028 z" />
  </g>
  <g
     id="text45"
     style="font-size:14px;font-family:'Alibaba PuHuiTi Medium';fill:#ffffff;fill-opacity:1"
     aria-label="o">
    <path
       id="path105"
       style="font-size:14px;font-family:'Alibaba PuHuiTi Medium';fill:#ffffff;fill-opacity:1"
       d="m 156.576,177.73375 q -0.868,0 -1.54,-0.182 -0.672,-0.182 -1.134,-0.63 -0.462,-0.448 -0.714,-1.204 -0.238,-0.756 -0.238,-1.904 0,-1.148 0.238,-1.904 0.252,-0.756 0.714,-1.204 0.462,-0.448 1.134,-0.63 0.672,-0.182 1.54,-0.182 0.868,0 1.54,0.182 0.686,0.182 1.148,0.63 0.462,0.448 0.7,1.204 0.252,0.756 0.252,1.904 0,1.148 -0.252,1.904 -0.238,0.756 -0.7,1.204 -0.462,0.448 -1.148,0.63 -0.672,0.182 -1.54,0.182 z m 0,-1.358 q 0.532,0 0.882,-0.126 0.35,-0.126 0.56,-0.42 0.21,-0.294 0.294,-0.784 0.098,-0.49 0.098,-1.232 0,-0.728 -0.098,-1.218 -0.084,-0.504 -0.308,-0.798 -0.21,-0.308 -0.56,-0.434 -0.35,-0.126 -0.868,-0.126 -0.518,0 -0.868,0.126 -0.35,0.126 -0.56,0.434 -0.21,0.294 -0.308,0.798 -0.084,0.49 -0.084,1.218 0,0.742 0.084,1.232 0.098,0.49 0.308,0.784 0.224,0.294 0.574,0.42 0.35,0.126 0.854,0.126 z" />
  </g>
  <g
     id="text47"
     style="font-size:14px;font-family:'Alibaba PuHuiTi Medium';fill:#ffffff;fill-opacity:1"
     aria-label="d">
    <path
       id="path108"
       style="font-size:14px;font-family:'Alibaba PuHuiTi Medium';fill:#ffffff;fill-opacity:1"
       d="m 169.5275,166.95375 v 10.64 h -1.554 l -0.168,-1.106 q -0.224,0.546 -0.784,0.896 -0.546,0.35 -1.568,0.35 -0.924,0 -1.526,-0.28 -0.588,-0.28 -0.938,-0.784 -0.336,-0.518 -0.476,-1.246 -0.126,-0.728 -0.126,-1.61 0,-0.798 0.126,-1.512 0.14,-0.714 0.476,-1.246 0.35,-0.532 0.938,-0.84 0.602,-0.322 1.526,-0.322 0.532,0 0.91,0.084 0.392,0.084 0.672,0.252 0.28,0.154 0.462,0.378 0.182,0.224 0.294,0.504 v -4.158 z m -3.598,9.422 q 0.574,0 0.952,-0.168 0.378,-0.182 0.588,-0.504 0.224,-0.322 0.308,-0.798 0.084,-0.476 0.084,-1.092 0,-0.574 -0.084,-1.05 -0.084,-0.476 -0.308,-0.812 -0.224,-0.336 -0.602,-0.518 -0.364,-0.196 -0.938,-0.196 -0.588,0 -0.924,0.21 -0.336,0.21 -0.518,0.574 -0.182,0.35 -0.238,0.826 -0.042,0.462 -0.042,0.966 0,0.546 0.056,1.022 0.056,0.462 0.238,0.812 0.182,0.336 0.518,0.532 0.336,0.196 0.91,0.196 z" />
  </g>
  <g
     id="text49"
     style="font-size:14px;font-family:'Alibaba PuHuiTi Medium';fill:#ffffff;fill-opacity:1"
     aria-label="e">
    <path
       id="path111"
       style="font-size:14px;font-family:'Alibaba PuHuiTi Medium';fill:#ffffff;fill-opacity:1"
       d="m 178.39625,173.15575 q 0,0.28 -0.028,0.546 -0.014,0.252 -0.042,0.448 l -4.956,0.322 q 0.028,0.952 0.532,1.4 0.504,0.448 1.638,0.448 0.336,0 0.686,-0.042 0.364,-0.042 0.686,-0.112 0.336,-0.084 0.616,-0.168 0.28,-0.098 0.476,-0.196 v 1.428 q -0.336,0.196 -1.092,0.35 -0.756,0.154 -1.68,0.154 -0.868,0 -1.54,-0.182 -0.672,-0.182 -1.134,-0.63 -0.462,-0.448 -0.714,-1.204 -0.238,-0.756 -0.238,-1.904 0,-1.148 0.238,-1.904 0.252,-0.756 0.714,-1.204 0.462,-0.448 1.134,-0.63 0.672,-0.182 1.54,-0.182 0.98,0 1.596,0.266 0.616,0.252 0.966,0.7 0.35,0.448 0.476,1.036 0.126,0.588 0.126,1.26 z m -1.624,-0.182 q 0,-0.35 -0.056,-0.658 -0.042,-0.322 -0.21,-0.56 -0.168,-0.238 -0.476,-0.378 -0.294,-0.14 -0.798,-0.14 -0.532,0 -0.882,0.126 -0.35,0.126 -0.56,0.378 -0.21,0.252 -0.308,0.63 -0.098,0.364 -0.112,0.854 z" />
  </g>
  <g
     id="text51"
     style="font-size:14px;font-family:'Alibaba PuHuiTi Medium';fill:#ffffff;fill-opacity:1" />
  <g
     id="text53"
     style="font-size:14px;font-family:'Alibaba PuHuiTi Medium';fill:#ffffff;fill-opacity:1"
     aria-label="i">
    <path
       id="path115"
       style="font-size:14px;font-family:'Alibaba PuHuiTi Medium';fill:#ffffff;fill-opacity:1"
       d="m 189.99125,168.87175 q -0.294,0 -0.49,-0.028 -0.182,-0.028 -0.308,-0.126 -0.112,-0.112 -0.154,-0.294 -0.042,-0.182 -0.042,-0.504 0,-0.322 0.042,-0.504 0.042,-0.196 0.154,-0.28 0.126,-0.098 0.308,-0.126 0.196,-0.028 0.49,-0.028 0.294,0 0.476,0.028 0.196,0.028 0.308,0.126 0.126,0.084 0.168,0.28 0.042,0.182 0.042,0.504 0,0.322 -0.042,0.504 -0.042,0.182 -0.168,0.294 -0.112,0.098 -0.308,0.126 -0.182,0.028 -0.476,0.028 z m -0.882,1.162 h 1.75 v 7.56 h -1.75 z" />
  </g>
  <g
     id="text55"
     style="font-size:14px;font-family:'Alibaba PuHuiTi Medium';fill:#ffffff;fill-opacity:1"
     aria-label="s">
    <path
       id="path118"
       style="font-size:14px;font-family:'Alibaba PuHuiTi Medium';fill:#ffffff;fill-opacity:1"
       d="m 195.5175,177.67775 q -0.63,0 -1.26,-0.07 -0.63,-0.056 -1.078,-0.168 v -1.47 q 0.49,0.154 1.106,0.252 0.63,0.084 1.148,0.084 0.728,0 1.078,-0.182 0.35,-0.182 0.35,-0.714 0,-0.266 -0.07,-0.434 -0.056,-0.182 -0.224,-0.308 -0.168,-0.126 -0.476,-0.224 -0.294,-0.098 -0.77,-0.21 -0.616,-0.14 -1.008,-0.322 -0.392,-0.182 -0.63,-0.42 -0.224,-0.252 -0.322,-0.588 -0.084,-0.35 -0.084,-0.826 0,-1.022 0.686,-1.596 0.686,-0.588 2.226,-0.588 0.602,0 1.162,0.07 0.574,0.07 0.854,0.182 l -0.084,1.372 q -0.308,-0.112 -0.84,-0.196 -0.518,-0.084 -1.036,-0.084 -0.728,0 -1.036,0.182 -0.294,0.168 -0.294,0.644 0,0.224 0.056,0.364 0.056,0.14 0.21,0.238 0.154,0.098 0.42,0.182 0.28,0.084 0.728,0.196 0.63,0.154 1.05,0.336 0.42,0.182 0.672,0.448 0.252,0.252 0.35,0.63 0.112,0.364 0.112,0.896 0,1.274 -0.784,1.806 -0.784,0.518 -2.212,0.518 z" />
  </g>
  <g
     id="text57"
     style="font-size:14px;font-family:'Alibaba PuHuiTi Medium';fill:#ffffff;fill-opacity:1" />
  <g
     id="text59"
     style="font-size:14px;font-family:'Alibaba PuHuiTi Medium';fill:#ffffff;fill-opacity:1"
     aria-label="l">
    <path
       id="path122"
       style="font-size:14px;font-family:'Alibaba PuHuiTi Medium';fill:#ffffff;fill-opacity:1"
       d="m 211.15325,177.67775 q -1.12,0 -1.582,-0.434 -0.448,-0.448 -0.448,-1.414 v -8.876 h 1.75 v 8.456 q 0,0.532 0.14,0.7 0.154,0.168 0.518,0.168 0.238,0 0.462,-0.056 v 1.372 q -0.378,0.084 -0.84,0.084 z" />
  </g>
  <g
     id="text61"
     style="font-size:14px;font-family:'Alibaba PuHuiTi Medium';fill:#ffffff;fill-opacity:1"
     aria-label="a">
    <path
       id="path125"
       style="font-size:14px;font-family:'Alibaba PuHuiTi Medium';fill:#ffffff;fill-opacity:1"
       d="m 217.964,169.89375 q 0.924,0 1.554,0.168 0.63,0.168 1.008,0.476 0.392,0.308 0.546,0.77 0.168,0.448 0.168,1.008 v 5.278 h -1.554 l -0.182,-0.966 q -0.28,0.49 -0.952,0.798 -0.658,0.308 -1.568,0.308 -2.59,0 -2.59,-2.282 0,-1.33 0.798,-1.862 0.798,-0.546 2.268,-0.546 h 2.03 v -0.336 q 0,-0.336 -0.07,-0.588 -0.07,-0.252 -0.266,-0.42 -0.182,-0.168 -0.518,-0.252 -0.336,-0.084 -0.854,-0.084 -0.406,0 -0.812,0.042 -0.406,0.042 -0.812,0.112 v -1.498 q 0.434,-0.07 0.91,-0.098 0.49,-0.028 0.896,-0.028 z m -0.602,6.468 q 0.798,0 1.344,-0.294 0.546,-0.294 0.784,-0.784 v -0.994 h -1.792 q -0.826,0 -1.204,0.224 -0.364,0.21 -0.364,0.882 0,0.49 0.28,0.728 0.294,0.238 0.952,0.238 z" />
  </g>
  <g
     id="text63"
     style="font-size:14px;font-family:'Alibaba PuHuiTi Medium';fill:#ffffff;fill-opacity:1"
     aria-label="w">
    <path
       id="path128"
       style="font-size:14px;font-family:'Alibaba PuHuiTi Medium';fill:#ffffff;fill-opacity:1"
       d="m 223.4395,170.03375 h 1.848 l 1.316,5.754 h 0.084 l 1.512,-5.754 h 2.002 l 1.54,5.754 h 0.084 l 1.33,-5.754 h 1.806 l -2.086,7.56 h -2.184 l -1.456,-5.516 h -0.084 l -1.47,5.516 h -2.198 z" />
  </g>
  <line
     id="line65"
     style="stroke:#ffffff;stroke-width:1.5"
     y2="172.671875"
     x2="138.0"
     y1="172.671875"
     x1="93.625" />
  <line
     id="line67"
     style="stroke:#ffffff;stroke-width:1.5"
     y2="172.671875"
     x2="286.375"
     y1="172.671875"
     x1="242.0" />
</svg>
